# xmcd
#
# Track frame offsets: 
#        150
#        15472
#        28595
#        44855
#        59857
#        75600
#        91400
#        106150
#        120975
#        135607
#        149772
#        159000
#        171915
#        188052
#
# Disc length: 2713 seconds
#
# Revision: 1
# Processed by: cddbd v1.5.1PL0 Copyright (c) Steve Scherf et al.
# Submitted via: ExactAudioCopy v0.95a5
#
DISCID=bb0a970e
DTITLE=Glenn Miller - The Masters
DYEAR=2002
DGENRE=Jazz
TTITLE0=Moonlight Serenade
TTITLE1=Little Brown Jug
TTITLE2=In The Mood
TTITLE3=A String Of Perls
TTITLE4=Tuxedo Junction
TTITLE5=Chattanooga Choo Choo
TTITLE6=Pensylvania 6-5000
TTITLE7=(I've Got A Gal In) Kalamazoo
TTITLE8=Don't Sit Under The Apple Tree
TTITLE9=My Melancholy Baby
TTITLE10=Achors Aweight
TTITLE11=Stairway To The Stars
TTITLE12=St Louis Blues March
TTITLE13=Sunrise Serenade
EXTD=
EXTT0=
EXTT1=
EXTT2=
EXTT3=
EXTT4=
EXTT5=
EXTT6=
EXTT7=
EXTT8=
EXTT9=
EXTT10=
EXTT11=
EXTT12=
EXTT13=
PLAYORDER=
